<svg id="Layer_1" data-name="Layer 1" xmlns="http://www.w3.org/2000/svg" xmlns:xlink="http://www.w3.org/1999/xlink" viewBox="0 0 2995 572.37"><defs><style>.cls-1{fill:url(#linear-gradient);}.cls-2{fill:url(#linear-gradient-2);}.cls-3{fill:url(#linear-gradient-3);}.cls-4{fill:url(#linear-gradient-4);}.cls-5{fill:url(#linear-gradient-5);}.cls-6{fill:url(#linear-gradient-6);}.cls-7{fill:url(#linear-gradient-7);}.cls-8{fill:url(#linear-gradient-8);}.cls-9{fill:url(#linear-gradient-9);}.cls-10{fill:url(#linear-gradient-10);}.cls-11{fill:url(#linear-gradient-11);}</style><linearGradient id="linear-gradient" x1="647.67" y1="317.24" x2="970" y2="317.24" gradientUnits="userSpaceOnUse"><stop offset="0" stop-color="#22c722"/><stop offset="0.19" stop-color="#2cbf34"/><stop offset="0.46" stop-color="#39b54a"/><stop offset="1" stop-color="#009245"/></linearGradient><linearGradient id="linear-gradient-2" x1="997.97" y1="317.24" x2="1377.74" y2="317.24" xlink:href="#linear-gradient"/><linearGradient id="linear-gradient-3" x1="1389.92" y1="317.24" x2="1715.19" y2="317.24" xlink:href="#linear-gradient"/><linearGradient id="linear-gradient-4" x1="1716.29" y1="317.24" x2="2097.5" y2="317.24" gradientUnits="userSpaceOnUse"><stop offset="0" stop-color="#22c722"/><stop offset="0.47" stop-color="#39b54a"/><stop offset="1" stop-color="#009245"/></linearGradient><linearGradient id="linear-gradient-5" x1="2083.66" y1="317.24" x2="2491.5" y2="317.24" xlink:href="#linear-gradient-4"/><linearGradient id="linear-gradient-6" x1="2503.76" y1="317.24" x2="2995" y2="317.24" xlink:href="#linear-gradient-4"/><linearGradient id="linear-gradient-7" x1="280.29" y1="317.61" x2="419.71" y2="317.61" gradientTransform="matrix(-1, 0, 0, 1, 951.06, 0)" xlink:href="#linear-gradient"/><linearGradient id="linear-gradient-8" x1="385.91" y1="131.71" x2="457.74" y2="131.71" gradientTransform="matrix(1, 0, 0, -1, 107.41, 263.43)" xlink:href="#linear-gradient"/><linearGradient id="linear-gradient-9" x1="532.25" y1="528.95" x2="646.73" y2="528.95" gradientTransform="matrix(-1, 0, 0, 1, 951.06, 0)" xlink:href="#linear-gradient"/><linearGradient id="linear-gradient-10" x1="765.6" y1="528.95" x2="880.07" y2="528.95" gradientTransform="matrix(-1, 0, 0, 1, 951.06, 0)" xlink:href="#linear-gradient"/><linearGradient id="linear-gradient-11" x1="356.36" y1="270.28" x2="951.06" y2="270.28" gradientTransform="matrix(-1, 0, 0, 1, 951.06, 0)" xlink:href="#linear-gradient"/></defs><path class="cls-1" d="M968.25,400c-10.87,71.61-68.17,126.36-154.12,126.36H647.67L725,108.1h130.9c70.64,0,112.38,46.45,102.5,109-6.43,39.44-28.9,67.46-55.57,73.69C941.32,291.55,978.62,331.51,968.25,400Zm-140-53.71L786.47,346l-14.57,79.4h40.5c30.87,0,49.64-15.05,53.84-37.11C871.18,363.42,854.63,346.3,828.21,346.3Zm2-141.67H812.65l-12.1,65.64h18.27c19.27,0,40.26-7.26,44.95-32.17C867.48,218.64,854.88,204.63,830.18,204.63Z" transform="translate(0 -13.82)"/><path class="cls-2" d="M1375.6,317.76c-23.95,208.61-215.86,208.61-247.72,208.61H998l77.31-418,129.91-.26C1288.42,107.84,1394.13,159,1375.6,317.76ZM1183,211.89H1163.7L1124.92,421.8h20c46.44,0,111.89-24.65,122.26-104.56C1276.32,249.26,1238,211.89,1183,211.89Z" transform="translate(0 -13.82)"/><path class="cls-3" d="M1556.13,211.37l-10.86,58.38h113.36l-17,92.63H1528.22l-11.11,59.94h140l-19.27,104.05h-248l77.3-418.27h248l-19.27,103.27Z" transform="translate(0 -13.82)"/><path class="cls-4" d="M1719.38,312.14c21.48-143.23,143.74-221.59,245.74-212.5,55.57,4.93,106.7,36.06,132.38,83.8l-77,73.44c-22.23-35.29-47.92-50.86-78.79-50.86-52.36,0-101.51,43.59-113.61,106.38-12.1,62.27,16.79,117.8,78.29,117.8,30.13,0,58.78-14,88.42-38.4l47.17,87.7c-42.48,37.11-100.76,56-152.63,56C1766.8,535.55,1700.85,434.35,1719.38,312.14Z" transform="translate(0 -13.82)"/><path class="cls-5" d="M2085.88,316.21c16.55-132.33,118.31-222.89,238.83-215.88,113.61,6.48,180.3,96.26,164.49,219.51-17,132.85-119.78,221.07-239.08,214.32C2137.75,527.68,2070.32,439.46,2085.88,316.21Zm295.64,1.55c10.12-64.86-21.74-111.83-74.59-113.38-55.57-2.08-103.24,46.18-113.36,111.83-9.64,62.27,19.51,111.57,74.83,113.39C2325.7,431.67,2371.64,381.33,2381.52,317.76Z" transform="translate(0 -13.82)"/><path class="cls-6" d="M2995,106.16,2917,528.32H2808.78l29.88-161.65L2709.49,521.31H2709l-67.43-152.83-29.63,159.84H2503.76l78-422.16h48.41l105.46,240.53L2937,106.16Z" transform="translate(0 -13.82)"/><path class="cls-7" d="M554.59,340.85h92.94a23.24,23.24,0,0,0,23.24-23.24h0a23.24,23.24,0,0,0-23.24-23.24H554.59a23.24,23.24,0,0,0-23.24,23.24h0A23.24,23.24,0,0,0,554.59,340.85Z" transform="translate(0 -13.82)"/><rect class="cls-8" x="493.32" y="108.48" width="71.82" height="46.47" rx="4.46" transform="translate(1058.47 249.61) rotate(-180)"/><path class="cls-9" d="M304.34,529a57.24,57.24,0,1,0,57.23-57.24A57.23,57.23,0,0,0,304.34,529ZM344,529a17.61,17.61,0,1,1,17.61,17.61A17.6,17.6,0,0,1,344,529Z" transform="translate(0 -13.82)"/><path class="cls-10" d="M71,529a57.24,57.24,0,1,0,57.23-57.24A57.23,57.23,0,0,0,71,529Zm39.62,0a17.62,17.62,0,1,1,17.61,17.61A17.6,17.6,0,0,1,110.61,529Z" transform="translate(0 -13.82)"/><path class="cls-11" d="M45.19,526.74h8.23a74.84,74.84,0,0,1,149.61,0h83.74a74.84,74.84,0,0,1,149.61,0H545.3a23.25,23.25,0,1,0,0-46.49H461.52a23.23,23.23,0,1,1,0-46.45h110a23.25,23.25,0,0,0,0-46.49H465.87a23.23,23.23,0,0,1-.35-46.45h17.26a23.25,23.25,0,0,0,0-46.5h-63.4a23.23,23.23,0,1,1,0-46.45H533.46a23.25,23.25,0,1,0,0-46.49h-115a23.23,23.23,0,1,1,0-46.45H449a23.25,23.25,0,1,0,0-46.49H358.4a22.11,22.11,0,0,0-4.66-3.13,107.88,107.88,0,0,0-213.45,1.28,19.14,19.14,0,0,0-3.74,1.85H114.22a45.11,45.11,0,0,0-44.16,35.84L1,472.28A45.17,45.17,0,0,0,45.19,526.74ZM329.43,108.48h-167a85.74,85.74,0,0,1,169.2-1.68C330.84,107.33,330.09,107.91,329.43,108.48Zm7.93,255.62a23.22,23.22,0,0,1,23.24-23.24H394a23.23,23.23,0,1,1,0,46.45H360.6a23.15,23.15,0,0,1-23.24-23.21ZM126,192.13a22,22,0,1,1,34.39,18.18,85.77,85.77,0,0,0,169.51-3.56,22,22,0,1,1,21.79,3.74,107.88,107.88,0,0,1-213.45,1.28A22,22,0,0,1,126,192.13Z" transform="translate(0 -13.82)"/></svg>