<svg id="Layer_1" data-name="Layer 1" xmlns="http://www.w3.org/2000/svg" xmlns:xlink="http://www.w3.org/1999/xlink" viewBox="0 0 2954.01 517.69"><defs><style>.cls-1{fill:url(#Áåçûìÿííûé_ãðàäèåíò_6);}.cls-2{fill:url(#Áåçûìÿííûé_ãðàäèåíò_6-2);}.cls-3{fill:url(#linear-gradient);}.cls-4{fill:url(#linear-gradient-2);}.cls-5{fill:url(#linear-gradient-3);}.cls-6{fill:url(#linear-gradient-4);}.cls-7{fill:url(#linear-gradient-5);}.cls-8{fill:url(#linear-gradient-6);}.cls-9{fill:url(#linear-gradient-7);}.cls-10{fill:url(#linear-gradient-8);}.cls-11{fill:url(#linear-gradient-9);}.cls-12{fill:url(#linear-gradient-10);}.cls-13{fill:url(#linear-gradient-11);}.cls-14{fill:url(#linear-gradient-12);}.cls-15{fill:url(#linear-gradient-13);}.cls-16{fill:url(#linear-gradient-14);}</style><linearGradient id="Áåçûìÿííûé_ãðàäèåíò_6" x1="241.53" y1="112.98" x2="335.78" y2="112.98" gradientUnits="userSpaceOnUse"><stop offset="0" stop-color="#e9a86b"/><stop offset="0.04" stop-color="#e8a06e"/><stop offset="0.32" stop-color="#e06881"/><stop offset="0.46" stop-color="#dd5289"/><stop offset="1" stop-color="#553398"/></linearGradient><linearGradient id="Áåçûìÿííûé_ãðàäèåíò_6-2" x1="188.97" y1="120.89" x2="310.63" y2="120.89" xlink:href="#Áåçûìÿííûé_ãðàäèåíò_6"/><linearGradient id="linear-gradient" x1="353.68" y1="193.99" x2="449.67" y2="526.26" gradientUnits="userSpaceOnUse"><stop offset="0" stop-color="#e9a86b"/><stop offset="0.04" stop-color="#e8a06e"/><stop offset="0.32" stop-color="#e06881"/><stop offset="0.46" stop-color="#dd5289"/><stop offset="0.99" stop-color="#553398"/></linearGradient><linearGradient id="linear-gradient-2" x1="226.16" y1="426.3" x2="421.83" y2="660.73" xlink:href="#linear-gradient"/><linearGradient id="linear-gradient-3" x1="113.95" y1="122.01" x2="364.31" y2="482.53" xlink:href="#linear-gradient"/><linearGradient id="linear-gradient-4" x1="92.26" y1="222.48" x2="66.52" y2="369.5" gradientUnits="userSpaceOnUse"><stop offset="0" stop-color="#9bf4ff"/><stop offset="0.53" stop-color="#87cffd"/><stop offset="1" stop-color="#73abfb"/></linearGradient><linearGradient id="linear-gradient-5" x1="36.86" y1="385.79" x2="441.69" y2="385.79" xlink:href="#linear-gradient-4"/><linearGradient id="linear-gradient-6" x1="198.58" y1="856.91" x2="280.04" y2="856.91" gradientTransform="matrix(0.98, 0.21, -0.21, 0.98, 81.17, -754.07)" xlink:href="#linear-gradient-4"/><linearGradient id="linear-gradient-7" x1="245.97" y1="396.77" x2="457.67" y2="396.77" xlink:href="#linear-gradient-4"/><linearGradient id="linear-gradient-8" x1="154.29" y1="296.4" x2="64.49" y2="438.52" xlink:href="#linear-gradient-4"/><linearGradient id="linear-gradient-9" x1="537.74" y1="283.77" x2="860.03" y2="283.77" xlink:href="#linear-gradient"/><linearGradient id="linear-gradient-10" x1="900.24" y1="283.77" x2="1279.96" y2="283.77" xlink:href="#linear-gradient"/><linearGradient id="linear-gradient-11" x1="1312.14" y1="283.77" x2="1637.36" y2="283.77" xlink:href="#linear-gradient"/><linearGradient id="linear-gradient-12" x1="1658.47" y1="283.67" x2="2039.63" y2="283.67" xlink:href="#linear-gradient"/><linearGradient id="linear-gradient-13" x1="2045.79" y1="285.4" x2="2453.58" y2="285.4" xlink:href="#linear-gradient"/><linearGradient id="linear-gradient-14" x1="2485.83" y1="281.74" x2="2977.01" y2="281.74" xlink:href="#linear-gradient"/></defs><path class="cls-1" d="M261.81,105.3c7.74-9.41,17.9-17,29.47-20.83C299.23,81.84,307.9,81,316,83s15.62,7.09,19.76,14.37l-11.42,4.06c-3-7.15-10.7-11.58-18.42-12.15s-15.36,2.18-22.05,6.08a67,67,0,0,0-30.3,38.93,9,9,0,0,1-1.58,3.59,8.58,8.58,0,0,1-2.38,1.69l-8.1,4.44c4.3-2.33,6.58-15.27,8.48-19.48A85.55,85.55,0,0,1,261.81,105.3Z" transform="translate(-22.99 -55)"/><path class="cls-2" d="M215.1,104.57c8.4-10.81,20.11-20.79,32.55-26.51s27.23-7.06,39.88-1.82,22.55,17.62,23.1,31.3a64.58,64.58,0,0,1-15.88,4.68c2.95-11.82-5.4-24.55-16.79-28.88s-24.78-1.74-34.85,5.11c-30.52,20.72-43.7,57.71-44.58,75.58-.05.95-8.33,4.41-9.34,4.8C187.91,164.29,191.59,134.81,215.1,104.57Z" transform="translate(-22.99 -55)"/><path class="cls-3" d="M362.25,75l47,76.26s9.41,220.29,63.59,348.85l-95.3-52.84-42.83-84L342.24,307,322.09,112.18Z" transform="translate(-22.99 -55)"/><path class="cls-4" d="M181.89,569.62c1.67,1.3,3.44,2.65,5.54,3,3,.47,5.82-1.17,8.41-2.71,80.07-47.83,184-62.49,277-69.79-32-39.85-46.85-58.49-70.85-95-96.49-6.56-203.41,17.43-277.36,79.74l2.66-16.34c-7.07,8.25-16.19,18.88-19.6,29.37a40.09,40.09,0,0,1-5.89,11.16s14.44,10.18,21.36,15.54C143.19,540.13,161.89,554,181.89,569.62Z" transform="translate(-22.99 -55)"/><path class="cls-5" d="M174.25,174.42c-7,4.57-14.18,9.4-18.82,16.38s-6.39,15.67-8,24q-27.3,146.39-45.7,294.24C196.07,460.4,294.37,423.76,402,405.14,361.48,270.86,352.91,172.31,362.25,75,306.92,96,205.27,154.22,174.25,174.42Z" transform="translate(-22.99 -55)"/><path class="cls-6" d="M49.32,312c-2.23,19.5,6.93,38,19.09,52.85a67.65,67.65,0,0,0,49.5,24.45c-2.13,15.23-2.92,20.47-4.67,33.81C91.3,423.88,68,411.56,54,393.76c-4.3-5.44-9.65-10.66-13-16.77-6.45-11.64-10.55-24.57-14.06-37.53-7.75-28.66-3.2-59.86,7.83-87.28s28.16-51.61,46.15-74.57c-4.17,5.32,2.67,20,4.93,25.27,4.48,10.42,4.4,12.4-1.69,21.71C48.59,278.87,50.17,304.57,49.32,312Z" transform="translate(-22.99 -55)"/><path class="cls-7" d="M436.14,338.7c1.69-13-10-23.67-21.12-30.52-34-20.88-74.61-29.93-114.52-28.71-70.2,2.14-139.59,37.42-179.1,95.55-14.79,21.76-25.59,47.46-24,73.8a75,75,0,0,0,8.3,29.88L101.79,509l29.59,21.58A120.75,120.75,0,0,1,95,522.32c-29.64-12-54.07-39-57.67-70.78-2.26-20.3,3.83-40.67,11.72-59.52,9.29-21.93,21.18-42.88,36.38-61.15,32.84-39.34,80.88-72.29,130.89-83.49s101.18-6.44,151.3,4.29c20.48,4.41,42.3,15.73,57.5,30.12S447.46,321.06,436.14,338.7Z" transform="translate(-22.99 -55)"/><path class="cls-8" d="M100.72,107.85q8.19,9.39,16.36,18.8a6.09,6.09,0,0,1,1.88,3.5,6.1,6.1,0,0,1-1.69,3.71q-13.14,16.95-27.9,32.56c-1.55,1.64-3.18,3.38-3.7,5.57-.57,2.45.33,5,1.22,7.32q4.71,12.49,9.43,25a391.58,391.58,0,0,1,40.41-56.58c7.58,9.46,7.58,9.46,20.28,23.7,11.7-38.47,18.19-58.88,34.42-104.1C180.1,72.36,116,99.35,100.72,107.85Z" transform="translate(-22.99 -55)"/><path class="cls-9" d="M455.72,407.45c-3.36-9.24-10.07-16.88-17.42-23.4C413,361.59,379,350.33,345.18,348.82s-67.5,6.17-99.21,18a290.4,290.4,0,0,1,34.15-.68c47.86,1.61,97.15,12.51,134.88,42a223.89,223.89,0,0,1,22.24,20.31c2.32,2.38,13.36,17.34,16.58,16.47C460.09,443.17,457.15,411.38,455.72,407.45Z" transform="translate(-22.99 -55)"/><path class="cls-10" d="M23,451.58c0,25.06,14,51.91,38.22,58.45-4.2,1.93-7.84-3.59-9-8.06A129.24,129.24,0,0,1,48,471c-.59-39.9,17.42-78.15,41.72-109.8a292,292,0,0,1,143-100C86.47,275.86,23,397.34,23,451.58Z" transform="translate(-22.99 -55)"/><path class="cls-11" d="M858.28,370.47c-10.87,75-68.16,132.37-154.1,132.37H537.74L615,64.71H745.92c70.62,0,112.36,48.65,102.48,114.15-6.42,41.32-28.89,70.67-55.56,77.19C831.36,256.87,868.65,298.72,858.28,370.47Zm-140-56.26-41.74-.27L662,397.11h40.5c30.87,0,49.64-15.76,53.84-38.87C761.23,332.15,744.68,314.21,718.26,314.21Zm2-148.39H702.7l-12.1,68.76h18.27c19.27,0,40.26-7.61,45-33.7C757.52,180.5,744.93,165.82,720.23,165.82Z" transform="translate(-22.99 -55)"/><path class="cls-12" d="M1277.83,284.32c-24,218.52-215.84,218.52-247.69,218.52H900.24L977.54,65l129.89-.27C1190.65,64.44,1296.35,118,1277.83,284.32ZM1085.21,173.43H1066l-38.77,219.88h20c46.42,0,111.86-25.82,122.24-109.54C1178.55,212.57,1140.28,173.43,1085.21,173.43Z" transform="translate(-22.99 -55)"/><path class="cls-13" d="M1478.33,172.88,1467.47,234h113.34l-17,97H1450.43l-11.12,62.78h140l-19.26,109H1312.14l77.29-438.13h247.93L1618.1,172.88Z" transform="translate(-22.99 -55)"/><path class="cls-14" d="M1661.55,278.34c21.49-150,143.73-232.11,245.72-222.6,55.56,5.17,106.68,37.78,132.36,87.79l-77.05,76.92c-22.22-37-47.91-53.27-78.77-53.27-52.36,0-101.5,45.66-113.6,111.43C1758.11,343.84,1787,402,1848.49,402c30.13,0,58.78-14.67,88.41-40.22l47.17,91.86c-42.48,38.87-100.76,58.71-152.62,58.71C1709,512.35,1643,406.35,1661.55,278.34Z" transform="translate(-22.99 -55)"/><path class="cls-15" d="M2048,284.32c16.55-138.61,118.29-233.47,238.8-226.13C2400.4,65,2467.08,159,2451.27,288.12c-17,139.16-119.76,231.57-239,224.5C2099.87,505.82,2032.45,413.42,2048,284.32Zm295.6,1.63c10.12-67.95-21.74-117.14-74.58-118.77-55.57-2.18-103.23,48.38-113.35,117.14-9.63,65.23,19.51,116.87,74.82,118.77C2287.8,405.26,2333.73,352.54,2343.61,286Z" transform="translate(-22.99 -55)"/><path class="cls-16" d="M2977,60.64l-78,442.2H2790.81l29.88-169.33-129.15,162h-.5l-67.41-160.09L2594,502.84H2485.83l78-442.2h48.4l105.44,251.94L2919,60.64Z" transform="translate(-22.99 -55)"/></svg>